<mxfile host="app.diagrams.net" agent="Mozilla/5.0 (Windows NT 10.0; Win64; x64; rv:130.0) Gecko/20100101 Firefox/130.0" version="24.7.16">
  <diagram name="Page-1" id="t9xWpzIiDnhU-qV9zuwO">
    <mxGraphModel dx="2801" dy="1004" grid="1" gridSize="10" guides="1" tooltips="1" connect="1" arrows="1" fold="1" page="1" pageScale="1" pageWidth="850" pageHeight="1100" math="0" shadow="0">
      <root>
        <mxCell id="0" />
        <mxCell id="1" parent="0" />
        <mxCell id="gbvmhoW2cTLYdGlF09vs-1" value="User Client" style="rounded=1;whiteSpace=wrap;html=1;" vertex="1" parent="1">
          <mxGeometry x="-190" y="370" width="380" height="180" as="geometry" />
        </mxCell>
        <mxCell id="gbvmhoW2cTLYdGlF09vs-10" style="edgeStyle=orthogonalEdgeStyle;rounded=0;orthogonalLoop=1;jettySize=auto;html=1;entryX=1;entryY=0.5;entryDx=0;entryDy=0;" edge="1" parent="1" source="gbvmhoW2cTLYdGlF09vs-2" target="gbvmhoW2cTLYdGlF09vs-4">
          <mxGeometry relative="1" as="geometry" />
        </mxCell>
        <mxCell id="gbvmhoW2cTLYdGlF09vs-2" value="Enemy Client" style="rounded=1;whiteSpace=wrap;html=1;" vertex="1" parent="1">
          <mxGeometry x="710" y="360" width="380" height="180" as="geometry" />
        </mxCell>
        <mxCell id="gbvmhoW2cTLYdGlF09vs-4" value="Server" style="rounded=1;whiteSpace=wrap;html=1;" vertex="1" parent="1">
          <mxGeometry x="260" y="360" width="380" height="180" as="geometry" />
        </mxCell>
        <mxCell id="gbvmhoW2cTLYdGlF09vs-9" style="edgeStyle=orthogonalEdgeStyle;rounded=0;orthogonalLoop=1;jettySize=auto;html=1;entryX=0.01;entryY=0.555;entryDx=0;entryDy=0;entryPerimeter=0;" edge="1" parent="1" source="gbvmhoW2cTLYdGlF09vs-1" target="gbvmhoW2cTLYdGlF09vs-4">
          <mxGeometry relative="1" as="geometry" />
        </mxCell>
        <mxCell id="gbvmhoW2cTLYdGlF09vs-11" style="edgeStyle=orthogonalEdgeStyle;rounded=0;orthogonalLoop=1;jettySize=auto;html=1;entryX=0.993;entryY=0.444;entryDx=0;entryDy=0;entryPerimeter=0;" edge="1" parent="1" source="gbvmhoW2cTLYdGlF09vs-4" target="gbvmhoW2cTLYdGlF09vs-1">
          <mxGeometry relative="1" as="geometry" />
        </mxCell>
        <mxCell id="gbvmhoW2cTLYdGlF09vs-12" style="edgeStyle=orthogonalEdgeStyle;rounded=0;orthogonalLoop=1;jettySize=auto;html=1;entryX=0.006;entryY=0.434;entryDx=0;entryDy=0;entryPerimeter=0;" edge="1" parent="1" source="gbvmhoW2cTLYdGlF09vs-4" target="gbvmhoW2cTLYdGlF09vs-2">
          <mxGeometry relative="1" as="geometry">
            <Array as="points">
              <mxPoint x="660" y="438" />
              <mxPoint x="660" y="438" />
            </Array>
          </mxGeometry>
        </mxCell>
        <mxCell id="gbvmhoW2cTLYdGlF09vs-14" style="edgeStyle=orthogonalEdgeStyle;rounded=0;orthogonalLoop=1;jettySize=auto;html=1;" edge="1" parent="1" source="gbvmhoW2cTLYdGlF09vs-13" target="gbvmhoW2cTLYdGlF09vs-1">
          <mxGeometry relative="1" as="geometry" />
        </mxCell>
        <mxCell id="gbvmhoW2cTLYdGlF09vs-13" value="&lt;div&gt;User&lt;/div&gt;&lt;div&gt;&lt;br&gt;&lt;/div&gt;" style="shape=umlActor;verticalLabelPosition=bottom;verticalAlign=top;html=1;outlineConnect=0;" vertex="1" parent="1">
          <mxGeometry x="-425" y="430" width="105" height="110" as="geometry" />
        </mxCell>
        <mxCell id="gbvmhoW2cTLYdGlF09vs-15" value="Enemy" style="shape=umlActor;verticalLabelPosition=bottom;verticalAlign=top;html=1;outlineConnect=0;" vertex="1" parent="1">
          <mxGeometry x="1230" y="410" width="30" height="60" as="geometry" />
        </mxCell>
        <mxCell id="gbvmhoW2cTLYdGlF09vs-16" style="edgeStyle=orthogonalEdgeStyle;rounded=0;orthogonalLoop=1;jettySize=auto;html=1;entryX=1;entryY=0.444;entryDx=0;entryDy=0;entryPerimeter=0;" edge="1" parent="1" source="gbvmhoW2cTLYdGlF09vs-15" target="gbvmhoW2cTLYdGlF09vs-2">
          <mxGeometry relative="1" as="geometry" />
        </mxCell>
        <mxCell id="gbvmhoW2cTLYdGlF09vs-19" value="Keyboard / Controller" style="text;html=1;align=center;verticalAlign=middle;whiteSpace=wrap;rounded=0;" vertex="1" parent="1">
          <mxGeometry x="1130" y="400" width="60" height="30" as="geometry" />
        </mxCell>
        <mxCell id="gbvmhoW2cTLYdGlF09vs-20" value="Keyboard / Controller" style="text;html=1;align=center;verticalAlign=middle;whiteSpace=wrap;rounded=0;" vertex="1" parent="1">
          <mxGeometry x="-280" y="410" width="60" height="30" as="geometry" />
        </mxCell>
      </root>
    </mxGraphModel>
  </diagram>
</mxfile>
